Coordinates
version=1
nRows=17
nColumns=33
inDegrees=yes

Units are S.I. units (second, meters, Newtons, ...)
Angles are in degrees.

endheader
time	ground_thorax_rot_x	ground_thorax_rot_y	ground_thorax_rot_z	ground_thorax_tx	ground_thorax_ty	ground_thorax_tz	clav_prot_r	clav_elev_r	scapula_abduction_r	scapula_elevation_r	scapula_upward_rot_r	scapula_winging_r	shoulder_elv_r	plane_of_elev_r	axial_rot_r	elbow_flexion_r	pro_sup_r	wrist_flex_r	wrist_dev_r	clav_prot_l	clav_elev_l	scapula_abduction_l	scapula_elevation_l	scapula_upward_rot_l	scapula_winging_l	shoulder_elv_l	plane_of_elev_l	axial_rot_l	elbow_flexion_l	pro_sup_l	wrist_flex_l	wrist_dev_l	
8.9500	27.059001	32.894675	45.919013	-104.870623	784.916957	8.947819	13.355513	37.885619	35.374028	45.000000	-40.718365	2074.158147	-2277.466565	148.361140	-122.687084	2170.069481	12.132979	16.784244	12.787368	8.080888	-45.000000	-36.382157	45.000000	-45.000000	-2784.051695	430.864542	18.348551	-63.452776	730.094465	20.952013	8.808363	-19.063774	
8.9600	26.453119	33.265232	47.059633	-100.509719	783.392600	9.072052	13.391034	37.791696	35.142535	45.000000	-41.153237	2074.431482	-2277.669722	148.470019	-122.228068	2169.914997	12.954146	16.722317	12.798249	8.056469	-45.000000	-36.311616	45.000000	-45.000000	-2784.086665	430.674669	17.938802	-64.685392	729.974419	21.713256	8.851570	-19.050611	
8.9700	25.829180	33.626556	48.204176	-96.200890	781.968538	9.207928	13.435658	37.685957	34.889014	45.000000	-41.577409	2074.710478	-2277.862610	148.580843	-121.749286	2169.765290	13.832104	16.666864	12.772143	8.028611	-45.000000	-36.234355	45.000000	-45.000000	-2784.129760	430.513544	17.507570	-65.923171	729.849563	22.507323	8.877692	-19.044126	
8.9800	25.216766	33.963919	49.322003	-91.959433	780.658384	9.355213	13.463184	37.587328	34.643887	45.000000	-41.974737	2074.978196	-2278.055629	148.687760	-121.262297	2169.618644	14.783441	16.621092	12.717233	8.006558	-45.000000	-36.148514	45.000000	-45.000000	-2784.167503	430.362559	17.079570	-67.167032	729.717948	23.325419	8.882703	-19.041390	
8.9900	24.615388	34.280742	50.407556	-87.803137	779.475666	9.514372	13.486260	37.491761	34.400158	45.000000	-42.347942	2075.237702	-2278.244269	148.789859	-120.788709	2169.477028	15.806768	16.585162	12.631429	7.984247	-45.000000	-36.057701	45.000000	-45.000000	-2784.202963	430.221846	16.660737	-68.395578	729.581327	24.150347	8.872061	-19.040260	
9.0000	24.041070	34.564955	51.444038	-83.751326	778.433270	9.686177	13.477075	37.411759	34.174756	45.000000	-42.684032	2075.481612	-2278.431708	148.881479	-120.340489	2169.344040	16.906308	16.562205	12.523890	7.975322	-45.000000	-35.970159	45.000000	-45.000000	-2784.218860	430.073661	16.274174	-69.603516	729.443289	24.973317	8.842227	-19.038623	
9.0100	23.465008	34.835135	52.463234	-79.824596	777.542577	9.871288	13.478453	37.311689	33.933907	45.000000	-43.010199	2075.732978	-2278.594021	148.968698	-119.942813	2169.225501	18.051661	16.546741	12.380704	7.971420	-45.000000	-35.889693	45.000000	-45.000000	-2784.236260	429.944365	15.888263	-70.751387	729.306242	25.772247	8.803675	-19.034357	
9.0200	22.907230	35.081264	53.435443	-76.043614	776.812403	10.069787	13.435433	37.221109	33.681870	44.999999	-43.295304	2075.981626	-2278.739000	149.043335	-119.605597	2169.118773	19.235919	16.541899	12.227834	7.988048	-45.000000	-35.834799	45.000000	-45.000000	-2784.226832	429.802951	15.543584	-71.840957	729.171017	26.544580	8.755322	-19.027222	
9.0300	22.376155	35.306367	54.353943	-72.429361	776.247764	10.281019	13.382915	37.130158	33.438122	44.999999	-43.557651	2076.228424	-2278.871363	149.114959	-119.337611	2169.022099	20.446624	16.543284	12.063352	8.011566	-45.000000	-35.788189	45.000000	-45.000000	-2784.215532	429.664395	15.222924	-72.829738	729.038280	27.283544	8.703310	-19.016750	
9.0400	21.895534	35.497626	55.187336	-69.002091	775.848468	10.503842	13.302619	37.061589	33.225502	44.999998	-43.778128	2076.457618	-2279.008116	149.176120	-119.148933	2168.933040	21.687171	16.552879	11.906235	8.037391	-45.000000	-35.744045	45.000000	-45.000000	-2784.198151	429.512302	14.953514	-73.703303	728.906117	27.997760	8.645570	-19.004006	
9.0500	21.465218	35.659408	55.940096	-65.780731	775.608144	10.736962	13.252729	36.994579	33.054227	44.999997	-43.981850	2076.672370	-2279.145799	149.231926	-119.056928	2168.853658	22.938522	16.565812	11.744961	8.045023	-45.000000	-35.680491	45.000000	-45.000000	-2784.211962	429.373722	14.702618	-74.406381	728.774512	28.684149	8.585846	-18.989634	
9.0600	21.098580	35.783943	56.584133	-62.781162	775.513985	10.979396	13.199553	36.957810	32.915337	44.999995	-44.137311	2076.858497	-2279.293354	149.263987	-119.074904	2168.783339	24.186519	16.586149	11.602050	8.036009	-45.000000	-35.612396	45.000000	-45.000000	-2784.235562	429.218512	14.512025	-74.934583	728.643812	29.347805	8.523984	-18.976407	
9.0700	20.787861	35.877302	57.136190	-60.015723	775.547920	11.230701	13.169337	36.931774	32.819092	44.999990	-44.270253	2077.022871	-2279.442254	149.283040	-119.202726	2168.723812	25.392768	16.610355	11.472491	8.013854	-45.000000	-35.534115	45.000000	-45.000000	-2784.280992	429.061142	14.360949	-75.258120	728.518860	29.975075	8.464259	-18.965205	
9.0800	20.486340	35.959851	57.644318	-57.492567	775.688424	11.491557	13.161981	36.900132	32.698738	44.999983	-44.374971	2077.185644	-2279.564959	149.284437	-119.444600	2168.676341	26.492506	16.635334	11.358947	7.982423	-45.000000	-35.479593	45.000000	-45.000000	-2784.334543	428.904066	14.240452	-75.378635	728.402896	30.539453	8.407668	-18.954579	
9.0900	20.191588	36.038867	58.121794	-55.215650	775.913298	11.763622	13.168992	36.850942	32.559849	44.999969	-44.469477	2077.349975	-2279.654391	149.275702	-119.781330	2168.636559	27.425138	16.656982	11.266678	7.960346	-45.000000	-35.443054	45.000000	-45.000000	-2784.395006	428.752120	14.136589	-75.315015	728.291976	31.012249	8.365233	-18.945488	
9.1000	19.901902	36.116359	58.565793	-53.184075	776.201843	12.049198	13.177497	36.800380	32.387214	44.999945	-44.531892	2077.510831	-2279.718042	149.253017	-120.188114	2168.599362	28.153473	16.674498	11.203858	7.940635	-45.000000	-35.439972	45.000000	-45.000000	-2784.448978	428.596324	14.056572	-75.107593	728.185778	31.371326	8.332877	-18.935311	
9.1100	19.662046	36.178927	58.934275	-51.391962	776.536726	12.350069	13.166331	36.764003	32.252277	44.999901	-44.573135	2077.649138	-2279.781340	149.227562	-120.620880	2168.559179	28.678545	16.688625	11.182030	7.932388	-45.000000	-35.437104	45.000000	-45.000000	-2784.497360	428.428898	14.015519	-74.805482	728.081749	31.609493	8.323681	-18.928434	
